<svg width="16" height="16" viewBox="0 0 16 16" fill="none" xmlns="http://www.w3.org/2000/svg">
<path fill-rule="evenodd" clip-rule="evenodd" d="M1.74738 2.57447C1.79228 2.55046 1.8261 2.5365 1.88551 2.52503C1.95676 2.51127 2.07243 2.5 2.28194 2.5H13.7181C13.9276 2.5 14.0432 2.51127 14.1145 2.52503C14.1739 2.5365 14.2077 2.55046 14.2526 2.57447C14.3285 2.61503 14.385 2.67155 14.4255 2.74738C14.4495 2.79228 14.4635 2.8261 14.475 2.88551C14.4887 2.95676 14.5 3.07243 14.5 3.28194V5H1.5V3.28194C1.5 3.07243 1.51127 2.95676 1.52503 2.88551C1.5365 2.8261 1.55046 2.79228 1.57447 2.74738C1.61503 2.67155 1.67155 2.61503 1.74738 2.57447ZM2.28194 1.5C1.79567 1.5 1.54084 1.5509 1.27578 1.69266C1.02568 1.82641 0.826413 2.02568 0.69266 2.27578C0.550901 2.54084 0.5 2.79567 0.5 3.28194V5.5V6H1H1.5V12.4C1.5 13.5703 2.46713 14.5 3.63636 14.5H12.3636C13.5329 14.5 14.5 13.5703 14.5 12.4V6H15H15.5V5.5V3.28194C15.5 2.79567 15.4491 2.54084 15.3073 2.27578C15.1736 2.02568 14.9743 1.82641 14.7242 1.69266C14.4592 1.5509 14.2043 1.5 13.7181 1.5H2.28194ZM13.5 6H2.5V12.4C2.5 12.997 2.99812 13.5 3.63636 13.5H12.3636C13.0019 13.5 13.5 12.997 13.5 12.4V6ZM9.60119 8H6.39881C6.09966 8 5.85715 8.24251 5.85715 8.54167C5.85715 8.84082 6.09966 9.08333 6.39881 9.08333H9.60119C9.90035 9.08333 10.1429 8.84082 10.1429 8.54167C10.1429 8.24251 9.90035 8 9.60119 8Z" fill="currentColor"/>
</svg>
