<svg width="16" height="16" viewBox="0 0 16 16" fill="none" xmlns="http://www.w3.org/2000/svg">
<path fill-rule="evenodd" clip-rule="evenodd" d="M1.27578 1.69266C1.54084 1.5509 1.79567 1.5 2.28194 1.5H13.7181C14.2043 1.5 14.4592 1.5509 14.7242 1.69266C14.9743 1.82641 15.1736 2.02568 15.3073 2.27578C15.4491 2.54084 15.5 2.79567 15.5 3.28194V5H0.5V3.28194C0.5 2.79567 0.550901 2.54084 0.69266 2.27578C0.826413 2.02568 1.02568 1.82641 1.27578 1.69266ZM1.5 6H14.5V12.4C14.5 13.5703 13.5329 14.5 12.3636 14.5H3.63636C2.46713 14.5 1.5 13.5703 1.5 12.4V6ZM6.39881 8H9.60119C9.90035 8 10.1429 8.24251 10.1429 8.54167C10.1429 8.84082 9.90035 9.08333 9.60119 9.08333H6.39881C6.09966 9.08333 5.85715 8.84082 5.85715 8.54167C5.85715 8.24251 6.09966 8 6.39881 8Z" fill="currentColor"/>
</svg>
