<svg width="16" height="16" viewBox="0 0 16 16" fill="none" xmlns="http://www.w3.org/2000/svg">
<path fill-rule="evenodd" clip-rule="evenodd" d="M5.30027 2.61591C5.90171 1.861 6.81907 1.5 7.91465 1.5C8.96473 1.5 9.86096 1.83125 10.4685 2.52782C11.0711 3.21873 11.3217 4.19144 11.2488 5.33942C11.1224 7.33073 10.0493 8.6887 8.61675 9.03269C8.34824 9.09716 8.0783 8.93176 8.01383 8.66325C7.94935 8.39474 8.11476 8.1248 8.38327 8.06033C9.28922 7.84279 10.1451 6.94145 10.2509 5.27606C10.313 4.29764 10.0911 3.61648 9.71487 3.18512C9.34358 2.75942 8.7547 2.5 7.91465 2.5C7.0419 2.5 6.44846 2.77955 6.0824 3.23903C5.91033 3.45501 5.59576 3.4906 5.37978 3.31853C5.1638 3.14646 5.12821 2.83189 5.30027 2.61591ZM3.39646 4.64645C3.59172 4.45118 3.9083 4.45118 4.10356 4.64645L6.3536 6.89648C6.54886 7.09174 6.54886 7.40833 6.3536 7.60359L4.10356 9.85362C3.9083 10.0489 3.59172 10.0489 3.39646 9.85362C3.20119 9.65836 3.20119 9.34178 3.39646 9.14652L4.79294 7.75003L0.999997 7.75001C0.723855 7.75001 0.5 7.52615 0.5 7.25001C0.5 6.97386 0.72386 6.75001 1 6.75001L4.79293 6.75003L3.39646 5.35355C3.20119 5.15829 3.20119 4.84171 3.39646 4.64645ZM7.92777 10.8C5.10704 10.8 3.29134 11.7899 2.5374 13.6282C2.43262 13.8837 2.55479 14.1758 2.81028 14.2805C3.06577 14.3853 3.35783 14.2632 3.46261 14.0077C4.00514 12.6849 5.33636 11.8 7.92777 11.8C10.5016 11.8 11.8316 12.6732 12.3809 13.9788C12.488 14.2333 12.7812 14.3528 13.0357 14.2457C13.2902 14.1386 13.4097 13.8455 13.3027 13.5909C12.5388 11.7755 10.7282 10.8 7.92777 10.8Z" fill="currentColor"/>
</svg>
