<svg width="16" height="16" viewBox="0 0 16 16" fill="none" xmlns="http://www.w3.org/2000/svg">
<path fill-rule="evenodd" clip-rule="evenodd" d="M5.37451 2.52944C5.97762 1.83193 6.86602 1.5 7.91711 1.5C8.96719 1.5 9.86342 1.83125 10.471 2.52782C11.0736 3.21873 11.3242 4.19144 11.2513 5.33942C11.1041 7.65822 9.66417 9.11548 7.91711 9.11548C7.62987 9.11548 7.34964 9.07597 7.08144 8.9995L7.41669 8.66425C8.19774 7.8832 8.19774 6.61687 7.41669 5.83582L5.16666 3.58579C5.07598 3.49511 4.97876 3.41496 4.87652 3.34534C5.00189 3.04254 5.16731 2.76907 5.37451 2.52944ZM2.53985 13.6282C3.29379 11.7899 5.10948 10.8 7.93021 10.8C10.7306 10.8 12.5413 11.7755 13.3051 13.5909C13.3699 13.745 13.3535 13.9214 13.2612 14.0608C13.1689 14.2002 13.0131 14.2843 12.8459 14.2848L3.00413 14.3179C2.83715 14.3185 2.68092 14.2357 2.58767 14.0971C2.49443 13.9586 2.47649 13.7827 2.53985 13.6282ZM4.106 4.64645C3.91074 4.45118 3.59416 4.45118 3.3989 4.64645C3.20363 4.84171 3.20363 5.15829 3.3989 5.35355L4.79537 6.75003L1.00244 6.75001C0.726302 6.75001 0.502441 6.97386 0.502441 7.25001C0.502441 7.52615 0.726297 7.75001 1.00244 7.75001L4.79538 7.75003L3.3989 9.14651C3.20363 9.34178 3.20363 9.65836 3.3989 9.85362C3.59416 10.0489 3.91074 10.0489 4.106 9.85362L6.35604 7.60359C6.5513 7.40832 6.5513 7.09174 6.35604 6.89648L4.106 4.64645Z" fill="currentColor"/>
</svg>
