<svg width="16" height="16" viewBox="0 0 16 16" fill="none" xmlns="http://www.w3.org/2000/svg">
<path d="M1.5 5.8C1.5 4.95167 1.50039 4.34549 1.53921 3.87032C1.57756 3.40099 1.65089 3.10366 1.77248 2.86502C2.01217 2.39462 2.39462 2.01217 2.86502 1.77248C3.10366 1.65089 3.40099 1.57756 3.87032 1.53921C4.34549 1.50039 4.95167 1.5 5.8 1.5H10.2C11.0483 1.5 11.6545 1.50039 12.1297 1.53921C12.599 1.57756 12.8963 1.65089 13.135 1.77248C13.6054 2.01217 13.9878 2.39462 14.2275 2.86502C14.3491 3.10366 14.4224 3.40099 14.4608 3.87032C14.4996 4.34549 14.5 4.95167 14.5 5.8V10.2C14.5 11.0483 14.4996 11.6545 14.4608 12.1297C14.4224 12.599 14.3491 12.8963 14.2275 13.135C13.9878 13.6054 13.6054 13.9878 13.135 14.2275C12.8963 14.3491 12.599 14.4224 12.1297 14.4608C11.6545 14.4996 11.0483 14.5 10.2 14.5H5.8C4.95167 14.5 4.34549 14.4996 3.87032 14.4608C3.40099 14.4224 3.10366 14.3491 2.86502 14.2275C2.39462 13.9878 2.01217 13.6054 1.77248 13.135C1.65089 12.8963 1.57756 12.599 1.53921 12.1297C1.50039 11.6545 1.5 11.0483 1.5 10.2V5.8Z" fill="#F7F8FA" stroke="#D4D6D9"/>
<path fill-rule="evenodd" clip-rule="evenodd" d="M11 4.25L6.00005 5.25V6.25H5.99994V9.8766C5.84173 9.86613 5.67489 9.88159 5.5074 9.92647C4.84057 10.1052 4.41587 10.6825 4.55881 11.2159C4.70175 11.7494 5.35821 12.037 6.02504 11.8583C6.62422 11.6978 7.02791 11.2154 6.99994 10.7321V7.05002L9.99882 6.45025V8.8766C9.84061 8.86613 9.67377 8.88159 9.50627 8.92647C8.83944 9.10515 8.41474 9.68246 8.55768 10.2159C8.70063 10.7494 9.35708 11.037 10.0239 10.8583C10.6231 10.6978 11.0268 10.2154 10.9988 9.73213V6.25025L11 6.25V4.25Z" fill="#3E3E40"/>
</svg>
