<svg width="16" height="16" viewBox="0 0 16 16" fill="none" xmlns="http://www.w3.org/2000/svg">
<path d="M1.5 5.80305C1.5 4.95472 1.50039 4.34855 1.53921 3.87337C1.57756 3.40404 1.65089 3.10671 1.77248 2.86808C2.01217 2.39767 2.39462 2.01522 2.86502 1.77554C3.10366 1.65395 3.40099 1.58061 3.87032 1.54226C4.34549 1.50344 4.95167 1.50305 5.8 1.50305H10.2C11.0483 1.50305 11.6545 1.50344 12.1297 1.54226C12.599 1.58061 12.8963 1.65395 13.135 1.77554C13.6054 2.01522 13.9878 2.39767 14.2275 2.86808C14.3491 3.10671 14.4224 3.40404 14.4608 3.87337C14.4996 4.34855 14.5 4.95472 14.5 5.80305V10.2031C14.5 11.0514 14.4996 11.6576 14.4608 12.1327C14.4224 12.6021 14.3491 12.8994 14.2275 13.138C13.9878 13.6084 13.6054 13.9909 13.135 14.2306C12.8963 14.3522 12.599 14.4255 12.1297 14.4638C11.6545 14.5027 11.0483 14.5031 10.2 14.5031H5.8C4.95167 14.5031 4.34549 14.5027 3.87032 14.4638C3.40099 14.4255 3.10366 14.3522 2.86502 14.2306C2.39462 13.9909 2.01217 13.6084 1.77248 13.138C1.65089 12.8994 1.57756 12.6021 1.53921 12.1327C1.50039 11.6576 1.5 11.0514 1.5 10.2031V5.80305Z" fill="#77787A" stroke="#3E3E40"/>
<path d="M9.8 7.31023C10.1938 7.53759 10.3907 7.65127 10.4568 7.79968C10.5144 7.92914 10.5144 8.07697 10.4568 8.20642C10.3907 8.35483 10.1938 8.46851 9.8 8.69587L7.7 9.90831C7.3062 10.1357 7.10931 10.2493 6.94774 10.2324C6.80681 10.2176 6.67878 10.1436 6.59549 10.029C6.5 9.89756 6.5 9.6702 6.5 9.21549L6.5 6.79062C6.5 6.3359 6.5 6.10854 6.59549 5.97711C6.67878 5.86247 6.80681 5.78855 6.94774 5.77374C7.10931 5.75676 7.3062 5.87044 7.7 6.0978L9.8 7.31023Z" fill="white"/>
</svg>
