<svg width="16" height="16" viewBox="0 0 16 16" fill="none" xmlns="http://www.w3.org/2000/svg">
<path d="M1.5 5.80305C1.5 4.95472 1.50039 4.34855 1.53921 3.87337C1.57756 3.40404 1.65089 3.10671 1.77248 2.86808C2.01217 2.39767 2.39462 2.01522 2.86502 1.77554C3.10366 1.65395 3.40099 1.58061 3.87032 1.54226C4.34549 1.50344 4.95167 1.50305 5.8 1.50305H10.2C11.0483 1.50305 11.6545 1.50344 12.1297 1.54226C12.599 1.58061 12.8963 1.65395 13.135 1.77554C13.6054 2.01522 13.9878 2.39767 14.2275 2.86808C14.3491 3.10671 14.4224 3.40404 14.4608 3.87337C14.4996 4.34855 14.5 4.95472 14.5 5.80305V10.2031C14.5 11.0514 14.4996 11.6576 14.4608 12.1327C14.4224 12.6021 14.3491 12.8994 14.2275 13.138C13.9878 13.6084 13.6054 13.9909 13.135 14.2306C12.8963 14.3522 12.599 14.4255 12.1297 14.4638C11.6545 14.5027 11.0483 14.5031 10.2 14.5031H5.8C4.95167 14.5031 4.34549 14.5027 3.87032 14.4638C3.40099 14.4255 3.10366 14.3522 2.86502 14.2306C2.39462 13.9909 2.01217 13.6084 1.77248 13.138C1.65089 12.8994 1.57756 12.6021 1.53921 12.1327C1.50039 11.6576 1.5 11.0514 1.5 10.2031V5.80305Z" fill="#E9483A" stroke="#B72215"/>
<path d="M8.65138 7.79627C8.45236 7.57964 8.23344 7.28423 8.03442 6.92975C8.47226 5.45272 8.53196 4.42865 8.17373 3.91662C7.99461 3.64091 7.69608 3.50305 7.35775 3.50305C6.95971 3.50305 6.64128 3.68029 6.50196 4.03478C6.20343 4.72406 6.66118 5.98445 7.19853 7.00852C7.05922 7.48117 6.8602 8.0129 6.62137 8.58401C6.50196 8.89911 6.34275 9.21421 6.18353 9.50962C4.98941 9.96257 3.67588 10.6518 3.51666 11.479C3.45696 11.7941 3.55647 12.0895 3.83509 12.3061C3.99431 12.444 4.17343 12.5031 4.37245 12.5031C4.45206 12.5031 4.53166 12.4834 4.61127 12.4637C5.34765 12.2864 6.12382 11.2033 6.72088 10.1398C7.05922 10.0217 7.45726 9.8838 7.8752 9.76563C8.37275 9.62778 8.83049 9.50962 9.22853 9.43084C9.96491 10.0217 10.6217 10.3367 11.1789 10.3367C11.577 10.3564 11.9352 10.1989 12.2138 9.90349C12.6517 9.47023 12.4726 9.07636 12.4129 8.95819C12.0944 8.42647 11.0197 8.3083 9.44746 8.60371C9.20863 8.36738 8.93 8.09167 8.65138 7.79627ZM4.43215 11.7153C4.37245 11.735 4.35255 11.7153 4.29284 11.6168C4.33264 11.4199 4.71078 11.0457 5.52676 10.6518C5.10882 11.2427 4.71078 11.6562 4.43215 11.7153ZM7.19853 4.34988C7.21843 4.31049 7.21843 4.2908 7.33785 4.2908C7.45726 4.2908 7.49706 4.33018 7.51696 4.36957C7.65628 4.56651 7.65628 5.07854 7.49706 5.88598C7.23834 5.2164 7.07912 4.6059 7.19853 4.34988ZM7.67618 9.01727C7.53687 9.05666 7.37765 9.09605 7.21843 9.15513C7.25824 9.05666 7.29804 8.95819 7.33785 8.87942C7.47716 8.52493 7.61647 8.19014 7.71598 7.87504C7.83539 8.05229 7.97471 8.20983 8.07422 8.328C8.23343 8.48555 8.39265 8.64309 8.53197 8.80064C8.27324 8.85972 7.97471 8.9385 7.67618 9.01727ZM11.6964 9.35207C11.5969 9.52931 11.4377 9.549 11.2187 9.549C10.9799 9.549 10.6615 9.43084 10.3231 9.23391C11.2983 9.13544 11.7959 9.17482 11.6964 9.35207Z" fill="white"/>
</svg>
