<svg width="16" height="16" viewBox="0 0 16 16" fill="none" xmlns="http://www.w3.org/2000/svg">
<path d="M1.5 5.80305C1.5 4.95472 1.50039 4.34855 1.53921 3.87337C1.57756 3.40404 1.65089 3.10671 1.77248 2.86808C2.01217 2.39767 2.39462 2.01522 2.86502 1.77554C3.10366 1.65395 3.40099 1.58061 3.87032 1.54226C4.34549 1.50344 4.95167 1.50305 5.8 1.50305H10.2C11.0483 1.50305 11.6545 1.50344 12.1297 1.54226C12.599 1.58061 12.8963 1.65395 13.135 1.77554C13.6054 2.01522 13.9878 2.39767 14.2275 2.86808C14.3491 3.10671 14.4224 3.40404 14.4608 3.87337C14.4996 4.34855 14.5 4.95472 14.5 5.80305V10.2031C14.5 11.0514 14.4996 11.6576 14.4608 12.1327C14.4224 12.6021 14.3491 12.8994 14.2275 13.138C13.9878 13.6084 13.6054 13.9909 13.135 14.2306C12.8963 14.3522 12.599 14.4255 12.1297 14.4638C11.6545 14.5027 11.0483 14.5031 10.2 14.5031H5.8C4.95167 14.5031 4.34549 14.5027 3.87032 14.4638C3.40099 14.4255 3.10366 14.3522 2.86502 14.2306C2.39462 13.9909 2.01217 13.6084 1.77248 13.138C1.65089 12.8994 1.57756 12.6021 1.53921 12.1327C1.50039 11.6576 1.5 11.0514 1.5 10.2031V5.80305Z" fill="#3E3E40" stroke="#19191A"/>
<path d="M10.567 8.00305C10.7594 7.66972 11.2406 7.66972 11.433 8.00305L12.7321 10.2531C12.9245 10.5864 12.6839 11.0031 12.299 11.0031H9.70096C9.31606 11.0031 9.0755 10.5864 9.26795 10.2531L10.567 8.00305Z" fill="white"/>
<path d="M9.68586 11.3121L9.39197 10.9076L9.68586 11.3121C9.91514 11.1455 10.063 10.8894 10.0926 10.6076C10.1155 10.3898 10.0445 10.1989 9.97898 10.0569C9.91454 9.91714 9.81946 9.75248 9.71485 9.57133L9.70429 9.55305L7.62583 5.95305L7.61529 5.93478C7.5107 5.75361 7.41565 5.58894 7.32685 5.46326C7.23659 5.33549 7.10678 5.17857 6.90674 5.08951C6.64783 4.97423 6.35217 4.97423 6.09326 5.08951C5.89322 5.17857 5.76341 5.33549 5.67315 5.46326C5.58435 5.58894 5.4893 5.7536 5.38472 5.93478C5.38121 5.94085 5.3777 5.94694 5.37417 5.95305L3.29571 9.55305L3.28515 9.57133C3.18055 9.75248 3.08547 9.91714 3.02102 10.0569C2.95551 10.1989 2.88451 10.3898 2.9074 10.6076C2.93703 10.8894 3.08486 11.1455 3.31414 11.3121C3.49129 11.4408 3.6921 11.4747 3.84787 11.489C4.00111 11.5031 4.19124 11.5031 4.40043 11.5031L4.42154 11.5031H8.57846L8.59957 11.5031C8.80876 11.5031 8.99889 11.5031 9.15213 11.489C9.3079 11.4747 9.50871 11.4408 9.68586 11.3121Z" fill="white" stroke="#3E3E40"/>
<path d="M7 4.00305L12 13.0031" stroke="#3E3E40"/>
</svg>
