<svg width="16" height="16" viewBox="0 0 16 16" fill="none" xmlns="http://www.w3.org/2000/svg">
  <rect x="1.5" y="1.5" width="13" height="13" rx="2.5" fill="#F7F8FA" stroke="#D4D6D9"/>
  <path d="M1.5 4.75C1.5 4.02905 1.50242 3.7416 1.54804 3.51227C1.7453 2.52055 2.52055 1.7453 3.51227 1.54804C3.7416 1.50242 4.02905 1.5 4.75 1.5H11.25C11.9709 1.5 12.2584 1.50242 12.4877 1.54804C13.4795 1.7453 14.2547 2.52055 14.452 3.51227C14.4976 3.7416 14.5 4.02905 14.5 4.75C14.5 5.00629 14.4976 5.06142 14.4904 5.09755C14.4509 5.29589 14.2959 5.45094 14.0975 5.49039C14.0614 5.49758 14.0063 5.5 13.75 5.5H2.25C1.99371 5.5 1.93858 5.49758 1.90245 5.49039C1.70411 5.45094 1.54906 5.29589 1.50961 5.09755C1.50242 5.06142 1.5 5.00629 1.5 4.75Z" fill="#E9483A" stroke="#B72215"/>
  <circle cx="4.75" cy="11.25" r="0.75" fill="#9B9C9E"/>
  <circle cx="8" cy="11.25" r="0.75" fill="#9B9C9E"/>
  <circle cx="11.25" cy="11.25" r="0.75" fill="#9B9C9E"/>
  <circle cx="8" cy="8.25" r="0.75" fill="#9B9C9E"/>
  <path d="M12 8.25C12 8.66421 11.6642 9 11.25 9C10.8358 9 10.5 8.66421 10.5 8.25C10.5 7.83579 10.8358 7.5 11.25 7.5C11.6642 7.5 12 7.83579 12 8.25Z" fill="#9B9C9E"/>
</svg>