<svg width="16" height="16" viewBox="0 0 16 16" fill="currentColor" xmlns="http://www.w3.org/2000/svg">
<path fill-rule="evenodd" clip-rule="evenodd" d="M2.02315 1.26713C2.42514 1.05215 2.80949 1 3.56389 1H12.4361C13.1905 1 13.5749 1.05215 13.9768 1.26713C14.3028 1.44144 14.5586 1.69723 14.7329 2.02315C14.9479 2.42514 15 2.80949 15 3.56389V4.5V5.5V12.4361C15 13.1905 14.9479 13.5749 14.7329 13.9768C14.5586 14.3028 14.3028 14.5586 13.9768 14.7329C13.5749 14.9479 13.1905 15 12.4361 15H3.56389C2.80949 15 2.42514 14.9479 2.02315 14.7329C1.69723 14.5586 1.44144 14.3028 1.26713 13.9768C1.05215 13.5749 1 13.1905 1 12.4361V5.5V4.5V3.56389C1 2.80949 1.05215 2.42514 1.26713 2.02315C1.44144 1.69723 1.69723 1.44144 2.02315 1.26713ZM14 3.56389V4.5H2V3.56389C2 2.84361 2.05581 2.6689 2.14895 2.49475C2.23005 2.3431 2.3431 2.23005 2.49475 2.14895C2.6689 2.05581 2.84361 2 3.56389 2H12.4361C13.1564 2 13.3311 2.05581 13.5052 2.14895C13.6569 2.23005 13.7699 2.3431 13.8511 2.49475C13.9442 2.6689 14 2.84361 14 3.56389ZM2 12.4361V5.5H14V12.4361C14 13.1564 13.9442 13.3311 13.8511 13.5052C13.7699 13.6569 13.6569 13.7699 13.5052 13.8511C13.3311 13.9442 13.1564 14 12.4361 14H3.56389C2.84361 14 2.6689 13.9442 2.49475 13.8511C2.3431 13.7699 2.23005 13.6569 2.14895 13.5052C2.05581 13.3311 2 13.1564 2 12.4361ZM3.75 11.25C3.75 11.6642 4.08579 12 4.5 12C4.91421 12 5.25 11.6642 5.25 11.25C5.25 10.8358 4.91421 10.5 4.5 10.5C4.08579 10.5 3.75 10.8358 3.75 11.25ZM8 12C7.58579 12 7.25 11.6642 7.25 11.25C7.25 10.8358 7.58579 10.5 8 10.5C8.41421 10.5 8.75 10.8358 8.75 11.25C8.75 11.6642 8.41421 12 8 12ZM10.75 11.25C10.75 11.6642 11.0858 12 11.5 12C11.9142 12 12.25 11.6642 12.25 11.25C12.25 10.8358 11.9142 10.5 11.5 10.5C11.0858 10.5 10.75 10.8358 10.75 11.25ZM4.5 9C4.08579 9 3.75 8.66421 3.75 8.25C3.75 7.83579 4.08579 7.5 4.5 7.5C4.91421 7.5 5.25 7.83579 5.25 8.25C5.25 8.66421 4.91421 9 4.5 9ZM7.25 8.25C7.25 8.66421 7.58579 9 8 9C8.41421 9 8.75 8.66421 8.75 8.25C8.75 7.83579 8.41421 7.5 8 7.5C7.58579 7.5 7.25 7.83579 7.25 8.25Z" fill="currentColor"/>
</svg>
