<svg width="16" height="16" viewBox="0 0 16 16" fill="none" xmlns="http://www.w3.org/2000/svg">
<path fill-rule="evenodd" clip-rule="evenodd" d="M6.80278 3.00085H5.50278C5.39394 3.00085 5.28672 3.00781 5.18154 3.0213C5.08704 3.02589 4.99811 3.03152 4.91382 3.03841C4.4754 3.07423 4.2512 3.13915 4.0948 3.21884C3.71847 3.41059 3.41251 3.71655 3.22076 4.09287C3.14107 4.24927 3.07615 4.47348 3.04033 4.91189C3.03344 4.99619 3.02782 5.08512 3.02322 5.17963C3.00973 5.2848 3.00278 5.39202 3.00278 5.50086V6.80086V7.86752V11.1675C3.00278 11.4714 3.05698 11.7625 3.15624 12.0319C2.81264 11.7636 2.52977 11.422 2.32976 11.0295C2.00278 10.3878 2.00278 9.54768 2.00278 7.86752V6.80086C2.00278 5.1207 2.00278 4.28062 2.32976 3.63888C2.61738 3.0744 3.07632 2.61546 3.64081 2.32783C4.28254 2.00085 5.12262 2.00085 6.80278 2.00085H7.86944C9.5496 2.00085 10.3897 2.00085 11.0314 2.32783C11.424 2.52785 11.7655 2.81072 12.0338 3.15432C11.7645 3.05506 11.4733 3.00085 11.1694 3.00085H7.86944H6.80278Z" fill="currentColor"/>
<path fill-rule="evenodd" clip-rule="evenodd" d="M11.6028 5.00085H6.40278C5.96624 5.00085 5.69897 5.00163 5.49901 5.01797C5.40586 5.02558 5.3495 5.03514 5.31528 5.0432C5.299 5.04703 5.28898 5.05025 5.28357 5.05218C5.27837 5.05404 5.27618 5.05515 5.27578 5.05535C5.1817 5.10329 5.10521 5.17978 5.05727 5.27386C5.05707 5.27426 5.05596 5.27644 5.0541 5.28164C5.05217 5.28706 5.04896 5.29707 5.04512 5.31335C5.03706 5.34758 5.0275 5.40394 5.01989 5.49709C5.00355 5.69705 5.00278 5.96431 5.00278 6.40085V11.6009C5.00278 12.0374 5.00355 12.3047 5.01989 12.5046C5.0275 12.5978 5.03706 12.6541 5.04512 12.6884C5.04896 12.7046 5.05217 12.7147 5.0541 12.7201C5.05596 12.7253 5.05707 12.7274 5.05727 12.7278C5.10521 12.8219 5.1817 12.8984 5.27578 12.9464C5.27618 12.9466 5.27837 12.9477 5.28357 12.9495C5.28898 12.9515 5.299 12.9547 5.31528 12.9585C5.3495 12.9666 5.40586 12.9761 5.49901 12.9837C5.69897 13.0001 5.96624 13.0009 6.40278 13.0009H11.6028C12.0393 13.0009 12.3066 13.0001 12.5065 12.9837C12.5997 12.9761 12.6561 12.9666 12.6903 12.9585C12.7066 12.9547 12.7166 12.9515 12.722 12.9495C12.7272 12.9477 12.7294 12.9466 12.7298 12.9464C12.8239 12.8984 12.9003 12.8219 12.9483 12.7278C12.9484 12.7277 12.9486 12.7273 12.9489 12.7266C12.9494 12.7254 12.9503 12.7233 12.9515 12.7201C12.9534 12.7147 12.9566 12.7046 12.9604 12.6884C12.9685 12.6541 12.9781 12.5978 12.9857 12.5046C13.002 12.3047 13.0028 12.0374 13.0028 11.6009V6.40085C13.0028 5.96431 13.002 5.69705 12.9857 5.49709C12.9781 5.40394 12.9685 5.34758 12.9604 5.31335C12.9566 5.29707 12.9534 5.28706 12.9515 5.28164C12.9496 5.27644 12.9485 5.27426 12.9483 5.27386C12.9003 5.17978 12.8239 5.10329 12.7298 5.05535C12.7294 5.05515 12.7272 5.05404 12.722 5.05218C12.7166 5.05025 12.7066 5.04703 12.6903 5.0432C12.6561 5.03514 12.5997 5.02558 12.5065 5.01797C12.3066 5.00163 12.0393 5.00085 11.6028 5.00085ZM4.16627 4.81987C4.00278 5.14074 4.00278 5.56078 4.00278 6.40085V11.6009C4.00278 12.4409 4.00278 12.861 4.16627 13.1818C4.31008 13.4641 4.53955 13.6936 4.82179 13.8374C5.14266 14.0009 5.5627 14.0009 6.40278 14.0009H11.6028C12.4429 14.0009 12.8629 14.0009 13.1838 13.8374C13.466 13.6936 13.6955 13.4641 13.8393 13.1818C14.0028 12.861 14.0028 12.4409 14.0028 11.6009V6.40085C14.0028 5.56078 14.0028 5.14074 13.8393 4.81987C13.6955 4.53763 13.466 4.30815 13.1838 4.16434C12.8629 4.00085 12.4429 4.00085 11.6028 4.00085H6.40278C5.5627 4.00085 5.14266 4.00085 4.82179 4.16434C4.53955 4.30815 4.31008 4.53763 4.16627 4.81987Z" fill="currentColor"/>
</svg>
