<svg width="20" height="20" viewBox="0 0 20 20" fill="none" xmlns="http://www.w3.org/2000/svg">
    <path d="M1.5 13.6665V6.66621C1.5 5.98005 1.49915 5.41502 1.53662 4.95641C1.57489 4.48824 1.65705 4.05778 1.86296 3.65351L1.99154 3.42402C2.31174 2.90181 2.77089 2.47652 3.31966 2.19681L3.47266 2.12519C3.83251 1.9708 4.21341 1.90316 4.62337 1.86966C5.08202 1.83219 5.64693 1.83304 6.33317 1.83304H9.83333L9.91878 1.83792C10.3388 1.88072 10.6666 2.23508 10.6667 2.66637C10.6667 3.09776 10.3389 3.45285 9.91878 3.49564L9.83333 3.49971H6.33317C5.61948 3.49971 5.13432 3.50081 4.75928 3.53144C4.39393 3.56129 4.20683 3.61478 4.0765 3.68118C3.76297 3.84093 3.50794 4.09604 3.34815 4.40954C3.28174 4.53986 3.22744 4.72702 3.19759 5.09232C3.16695 5.46733 3.16667 5.95259 3.16667 6.66621V13.6665C3.16667 14.3802 3.16697 14.8654 3.19759 15.2404C3.22744 15.6057 3.28176 15.7929 3.34815 15.9232L3.41244 16.038C3.57255 16.299 3.80212 16.5117 4.0765 16.6516L4.18718 16.6988C4.31182 16.7434 4.4854 16.7797 4.75928 16.8021C5.13431 16.8328 5.6195 16.833 6.33317 16.833H13.3335C14.0472 16.833 14.5324 16.8328 14.9074 16.8021C15.2727 16.7723 15.4598 16.718 15.5902 16.6516L15.7049 16.5873C15.9659 16.4271 16.1787 16.1976 16.3185 15.9232C16.3849 15.7929 16.4392 15.6057 16.4691 15.2404C16.4997 14.8654 16.5 14.3802 16.5 13.6665V10.1664C16.5001 9.70622 16.8732 9.33304 17.3333 9.33304C17.7935 9.33304 18.1666 9.70622 18.1667 10.1664V13.6665C18.1667 14.3528 18.1675 14.9177 18.13 15.3763C18.0918 15.8447 18.0098 16.2756 17.8037 16.68C17.4842 17.3072 16.9741 17.8172 16.347 18.1368C15.9426 18.3428 15.5117 18.4248 15.0433 18.4631C14.5846 18.5006 14.0197 18.4997 13.3335 18.4997H6.33317C5.64693 18.4997 5.08202 18.5006 4.62337 18.4631C4.21348 18.4296 3.83245 18.3627 3.47266 18.2084L3.31966 18.1368C2.77092 17.8571 2.31177 17.4317 1.99154 16.9095L1.86296 16.68C1.65688 16.2756 1.57489 15.8447 1.53662 15.3763C1.49915 14.9177 1.5 14.3528 1.5 13.6665ZM15.4941 0.82718C16.5099 -0.188487 18.1568 -0.188487 19.1725 0.82718C20.1566 1.81128 20.1872 3.38766 19.2645 4.40872L19.1725 4.50557L11.2038 12.4751C10.9436 12.7353 10.7212 12.9653 10.4494 13.1319C10.2258 13.2689 9.98173 13.3693 9.72673 13.4305C9.41677 13.5049 9.09689 13.4997 8.72901 13.4997H7.33334C6.8731 13.4997 6.5 13.1266 6.5 12.6664V11.2715C6.5 10.9035 6.49474 10.583 6.56918 10.273C6.63042 10.018 6.73164 9.77391 6.86865 9.55032C7.03523 9.27864 7.26531 9.05602 7.52539 8.79593L15.4941 0.82718ZM8.16667 11.833H8.72901C9.17611 11.833 9.26414 11.8279 9.33773 11.8103C9.42269 11.7898 9.50411 11.7558 9.57862 11.7102C9.64306 11.6706 9.70955 11.6118 10.0254 11.2959L17.9941 3.32718C18.359 2.96225 18.359 2.37045 17.9941 2.00557C17.6292 1.64077 17.0374 1.64077 16.6725 2.00557L8.70378 9.97513C8.38756 10.2913 8.3291 10.3574 8.28955 10.4219C8.244 10.4963 8.20985 10.5772 8.18946 10.662C8.17179 10.7356 8.16667 10.8242 8.16667 11.2715V11.833Z" fill="currentColor"/>
</svg>
