<svg width="16" height="16" viewBox="0 0 16 16" fill="none" xmlns="http://www.w3.org/2000/svg">
<path fill-rule="evenodd" clip-rule="evenodd" d="M12.3116 6.06112L10.584 4.33343L3.85964 11.0577L3.21176 13.4333L5.58733 12.7854L12.3116 6.06112ZM13.0188 5.35401L11.2911 3.62632L12.4296 2.48774C12.6249 2.29248 12.9415 2.29248 13.1368 2.48774L14.1573 3.50832C14.3526 3.70358 14.3526 4.02017 14.1573 4.21543L13.0188 5.35401ZM14.8644 4.92253C15.4502 4.33675 15.4502 3.387 14.8644 2.80121L13.8439 1.78063C13.2581 1.19484 12.3083 1.19484 11.7225 1.78063L2.96475 10.5384L2.01677 14.0144C1.91497 14.3876 2.25746 14.7301 2.63071 14.6283L6.10666 13.6803L14.8644 4.92253Z" fill="currentColor"/>
</svg>
