<svg width="16" height="17" viewBox="0 0 16 17" fill="none" xmlns="http://www.w3.org/2000/svg">
<path fill-rule="evenodd" clip-rule="evenodd" d="M7.50503 2.20795C7.77839 1.93459 8.22161 1.93459 8.49497 2.20795L12.3787 6.09165C12.5739 6.28691 12.5739 6.60349 12.3787 6.79876C12.1834 6.99402 11.8668 6.99402 11.6716 6.79876L8.5 3.62719L8.5 10.4201C8.5 10.6962 8.27614 10.9201 8 10.9201C7.72386 10.9201 7.5 10.6962 7.5 10.4201L7.5 3.62719L4.32844 6.79876C4.13318 6.99402 3.81659 6.99402 3.62133 6.79876C3.42607 6.60349 3.42607 6.28691 3.62133 6.09165L7.50503 2.20795ZM2.79999 10.1201C3.07613 10.1201 3.29999 10.3439 3.29999 10.6201V12.4201C3.29999 12.5858 3.4343 12.7201 3.59999 12.7201L12.4 12.7201C12.5657 12.7201 12.7 12.5858 12.7 12.4201V10.6201C12.7 10.3439 12.9238 10.1201 13.2 10.1201C13.4761 10.1201 13.7 10.3439 13.7 10.6201V12.4201C13.7 13.1381 13.118 13.7201 12.4 13.7201L3.59999 13.7201C2.88202 13.7201 2.29999 13.1381 2.29999 12.4201V10.6201C2.29999 10.3439 2.52385 10.1201 2.79999 10.1201Z" fill="currentColor"/>
</svg>
