<svg width="16" height="16" viewBox="0 0 16 16" fill="currentColor" xmlns="http://www.w3.org/2000/svg">
<path fill-rule="evenodd" clip-rule="evenodd" d="M13.8557 2.1515C13.9026 2.19895 13.938 2.25344 13.9621 2.31154C13.987 2.37173 13.9996 2.4358 14 2.49993L14 2.50328V6.50293C14 6.77907 13.7761 7.00293 13.5 7.00293C13.2239 7.00293 13 6.77907 13 6.50293V3.71004L7.85355 8.85648C7.65829 9.05175 7.34171 9.05175 7.14645 8.85648C6.95118 8.66122 6.95118 8.34464 7.14645 8.14938L12.2929 3.00293H9.5C9.22386 3.00293 9 2.77907 9 2.50293C9 2.22679 9.22386 2.00293 9.5 2.00293H13.4999C13.6369 2.00293 13.7611 2.05802 13.8514 2.14726L13.8557 2.1515ZM6.55025 4.50293L7.55025 3.50293H4.78194C4.22457 3.50293 3.88986 3.56757 3.53998 3.75468C3.20275 3.93504 2.93211 4.20568 2.75175 4.54291C2.56464 4.89279 2.5 5.2275 2.5 5.78487V11.221C2.5 11.7784 2.56464 12.1131 2.75175 12.463C2.93211 12.8002 3.20275 13.0708 3.53998 13.2512C3.88986 13.4383 4.22457 13.5029 4.78194 13.5029H10.2181C10.7754 13.5029 11.1101 13.4383 11.46 13.2512C11.7973 13.0708 12.0679 12.8002 12.2482 12.463C12.4354 12.1131 12.5 11.7784 12.5 11.221V8.45268L11.5 9.45268V11.221C11.5 11.6667 11.4536 11.8284 11.3664 11.9914C11.2793 12.1543 11.1514 12.2822 10.9884 12.3694C10.8255 12.4565 10.6638 12.5029 10.2181 12.5029H4.78194C4.33618 12.5029 4.17454 12.4565 4.01158 12.3694C3.84861 12.2822 3.72072 12.1543 3.63357 11.9914C3.54641 11.8284 3.5 11.6667 3.5 11.221V5.78487C3.5 5.33911 3.54641 5.17747 3.63357 5.01451C3.72072 4.85154 3.84861 4.72365 4.01158 4.6365C4.17454 4.54934 4.33618 4.50293 4.78194 4.50293H6.55025Z" fill="currentColor"/>
</svg>
