<svg width="16" height="16" viewBox="0 0 16 16" fill="none" xmlns="http://www.w3.org/2000/svg">
<g clip-path="url(#clip0_1560_1480)">
<path fill-rule="evenodd" clip-rule="evenodd" d="M5.88246 0.659809L5.65268 0.339661L5.28204 0.473534C4.39015 0.795685 3.56427 1.27461 2.84136 1.88512L2.54072 2.13901L2.70262 2.49767C3.04253 3.2507 3.01113 4.13369 2.58417 4.87321C2.15701 5.61306 1.40756 6.08181 0.585099 6.16367L0.192613 6.20273L0.12361 6.59107C0.0415311 7.053 -6.10352e-05 7.52392 -6.10352e-05 8.00003C-6.10352e-05 8.47614 0.0415311 8.94705 0.12361 9.40899L0.192613 9.79733L0.585099 9.83639C1.40756 9.91824 2.15701 10.387 2.58417 11.1268C3.01113 11.8664 3.04253 12.7494 2.70262 13.5024L2.54072 13.861L2.84136 14.1149C3.56427 14.7254 4.39015 15.2044 5.28204 15.5265L5.65268 15.6604L5.88246 15.3402C6.36454 14.6686 7.14541 14.2537 7.99997 14.2537C8.85452 14.2537 9.6354 14.6686 10.1175 15.3402L10.3473 15.6604L10.7179 15.5265C11.6098 15.2044 12.4357 14.7254 13.1586 14.1149L13.4592 13.861L13.2973 13.5024C12.9574 12.7494 12.9888 11.8664 13.4158 11.1268C13.8429 10.387 14.5924 9.91824 15.4148 9.83639L15.8073 9.79733L15.8763 9.40899C15.9584 8.94705 16 8.47614 16 8.00003C16 7.52391 15.9584 7.053 15.8763 6.59107L15.8073 6.20273L15.4148 6.16367C14.5924 6.08181 13.8429 5.61306 13.4158 4.87321C12.9888 4.13369 12.9574 3.2507 13.2973 2.49767L13.4592 2.13901L13.1586 1.88512C12.4357 1.27461 11.6098 0.795685 10.7179 0.473534L10.3473 0.339661L10.1175 0.659809C9.6354 1.33149 8.85452 1.7464 7.99997 1.7464C7.14541 1.7464 6.36454 1.33149 5.88246 0.659809ZM8.00002 10.6057C9.43909 10.6057 10.6057 9.43911 10.6057 8.00004C10.6057 6.56096 9.43909 5.39436 8.00002 5.39436C6.56094 5.39436 5.39434 6.56096 5.39434 8.00004C5.39434 9.43911 6.56094 10.6057 8.00002 10.6057Z" fill="currentColor"/>
</g>
<defs>
<clipPath id="clip0_1560_1480">
<rect width="16" height="16" fill="white"/>
</clipPath>
</defs>
</svg>
