<svg width="18" height="20" viewBox="0 0 18 20" fill="none" xmlns="http://www.w3.org/2000/svg">
<path d="M9.19369 0.840637C9.64354 0.873256 10.0792 1.0185 10.4592 1.26544C10.8927 1.54722 11.2351 1.94878 11.4455 2.42104L11.9362 3.51642L11.9378 3.52049L11.9793 3.60431C12.0826 3.79564 12.2366 3.95547 12.4253 4.06574L12.5091 4.10968C12.7067 4.2037 12.9267 4.24224 13.1455 4.21954L14.3377 4.09259L14.5314 4.07957C14.9822 4.0647 15.4305 4.16366 15.8343 4.36928C16.2958 4.60434 16.6798 4.96802 16.9386 5.41665H16.9378C17.1969 5.86503 17.3207 6.37898 17.2935 6.89614C17.2696 7.34869 17.1315 7.7868 16.8931 8.16974L16.7848 8.33006L16.0793 9.2993C15.9313 9.50286 15.8514 9.74829 15.8514 9.99998V10.004C15.8502 10.2553 15.9286 10.5007 16.0752 10.7047L16.78 11.674H16.7808C17.0856 12.0927 17.2622 12.5915 17.2894 13.1087C17.3166 13.6258 17.1937 14.1398 16.9346 14.5882L16.9338 14.5874C16.675 15.0359 16.2925 15.4005 15.8311 15.6356C15.3696 15.8706 14.8495 15.9667 14.3345 15.9123H14.3337L13.1423 15.7853V15.7845C12.8921 15.7585 12.64 15.8127 12.422 15.9383L12.4212 15.9375C12.2057 16.0625 12.0348 16.2529 11.9329 16.4803L11.9338 16.4811L11.4463 17.5765C11.236 18.0498 10.8934 18.4523 10.4592 18.7345C10.0792 18.9815 9.64354 19.1267 9.19369 19.1593L9.00001 19.1666C8.4821 19.1667 7.97513 19.0167 7.54086 18.7345C7.16096 18.4876 6.85079 18.1485 6.63835 17.7506L6.5529 17.5765L6.06625 16.4811V16.4803C5.96425 16.2506 5.79155 16.059 5.5739 15.9334V15.9342C5.35569 15.8084 5.1034 15.7534 4.85287 15.7796L4.85368 15.7804L3.66228 15.9074H3.66065C3.14588 15.9614 2.62611 15.8656 2.16488 15.6307C1.76137 15.4251 1.41786 15.1207 1.16472 14.7477L1.06137 14.5833C0.80232 14.135 0.679346 13.6209 0.706549 13.1038C0.73379 12.5866 0.910385 12.0886 1.21518 11.6699L1.91993 10.7007L1.97282 10.6225C2.07085 10.4625 2.12972 10.2814 2.14454 10.0944L2.14779 9.99998C2.14784 9.74829 2.06795 9.50286 1.91993 9.2993V9.29848L1.21518 8.33006C0.910385 7.91134 0.73379 7.41332 0.706549 6.89614C0.679346 6.37905 0.802319 5.86499 1.06137 5.41665L1.16391 5.25307C1.41699 4.87954 1.76099 4.57503 2.16488 4.36928C2.56882 4.16355 3.01762 4.06462 3.46859 4.07957L3.66146 4.09259L4.85694 4.21954H4.85613C5.1068 4.24587 5.35964 4.19167 5.57797 4.06574C5.7937 3.9397 5.96441 3.74905 6.06544 3.52049L6.06625 3.51886L6.5529 2.42348L6.63835 2.24933C6.85079 1.85149 7.16096 1.51238 7.54086 1.26544C7.97513 0.983249 8.4821 0.833228 9.00001 0.833313L9.19369 0.840637ZM10.665 9.99998C10.665 9.07953 9.91882 8.33335 8.99838 8.33331C8.0779 8.33331 7.33171 9.0795 7.33171 9.99998C7.33171 10.9205 8.0779 11.6666 8.99838 11.6666C9.91882 11.6666 10.665 10.9204 10.665 9.99998ZM3.80551 10.2254C3.76412 10.7492 3.57908 11.2531 3.2684 11.6805V11.6813L2.56283 12.6505C2.44786 12.8085 2.38104 12.9966 2.37077 13.1917C2.36055 13.3867 2.4065 13.5809 2.50424 13.75H2.50505L2.58643 13.8704C2.67664 13.9847 2.79095 14.0789 2.92172 14.1455C3.09567 14.234 3.29156 14.2699 3.48568 14.2497L4.67709 14.1235L4.67872 14.1227L4.90333 14.1081C5.35365 14.0964 5.80031 14.1919 6.20704 14.3856L6.40723 14.4905L6.59766 14.611C7.03065 14.9088 7.37439 15.3211 7.58887 15.804L8.07634 16.8994L8.1447 17.0288C8.22224 17.1518 8.32623 17.2565 8.44906 17.3364C8.61297 17.4429 8.80451 17.5 9.00001 17.5L9.14568 17.4894C9.28954 17.4685 9.42809 17.4163 9.55095 17.3364C9.71468 17.2299 9.8444 17.0779 9.92367 16.8994L10.4103 15.804L10.4111 15.8032L10.5104 15.6014C10.7604 15.142 11.1328 14.7589 11.5879 14.4954L11.5887 14.4946L11.7889 14.3896C12.2632 14.1639 12.792 14.0725 13.3172 14.1276H13.3189L14.5103 14.2545H14.5094C14.7037 14.2751 14.9001 14.239 15.0742 14.1504C15.2484 14.0617 15.3932 13.9242 15.4909 13.7549V13.754L15.5552 13.623C15.609 13.4881 15.6329 13.342 15.6252 13.1958C15.6174 13.0496 15.5781 12.9076 15.5104 12.7791L15.4331 12.6554L14.7275 11.6854L14.7259 11.6837C14.3713 11.1928 14.1817 10.6015 14.1847 9.99591C14.1855 9.39344 14.3773 8.80682 14.7316 8.31948V8.31867L15.4372 7.34943L15.5145 7.22573C15.5822 7.09712 15.6215 6.95454 15.6292 6.80825C15.6369 6.66209 15.6122 6.51671 15.5584 6.38182L15.495 6.24998C15.3973 6.08073 15.2524 5.94318 15.0783 5.85447C14.9042 5.76579 14.7078 5.72897 14.5135 5.74949L14.5143 5.75031L13.3221 5.87644L13.3213 5.87726C12.7209 5.94032 12.1158 5.81109 11.5928 5.50942L11.5903 5.50861C11.0704 5.20653 10.6591 4.74792 10.4152 4.19838L9.92449 3.10301L9.92367 3.10057C9.8444 2.92203 9.71468 2.77008 9.55095 2.66355C9.42809 2.5837 9.28954 2.53151 9.14568 2.51056L9.00001 2.49998C8.80451 2.49995 8.61297 2.55701 8.44906 2.66355C8.32623 2.74342 8.22224 2.84821 8.1447 2.97117L8.07634 3.10057L7.58887 4.1935L7.58969 4.19432C7.34598 4.74563 6.93413 5.2058 6.41293 5.50861L6.41049 5.50942C5.95288 5.77338 5.4326 5.90543 4.9074 5.89191L4.68197 5.87726L4.68116 5.87644L3.48568 5.75031V5.74949C3.29155 5.72907 3.09568 5.76591 2.92172 5.85447C2.7911 5.921 2.6765 6.01453 2.58643 6.12872L2.50505 6.24998H2.50424C2.4065 6.41906 2.36055 6.61322 2.37077 6.80825C2.38104 7.00333 2.44786 7.19148 2.56283 7.34943L3.2684 8.31867V8.31948L3.39372 8.50665C3.66833 8.9548 3.81453 9.47149 3.81446 9.99998L3.80551 10.2254ZM12.3317 9.99998C12.3317 11.8409 10.8393 13.3333 8.99838 13.3333C7.15743 13.3333 5.66505 11.8409 5.66505 9.99998C5.66505 8.15903 7.15743 6.66665 8.99838 6.66665C10.8393 6.66668 12.3317 8.15905 12.3317 9.99998Z" fill="currentColor"/>
</svg>
