<svg width="16" height="16" viewBox="0 0 16 16" fill="none" xmlns="http://www.w3.org/2000/svg">
<path fill-rule="evenodd" clip-rule="evenodd" d="M5.74788 0.65033L5.96834 0.957493C6.43087 1.60193 7.18008 2.00001 7.99997 2.00001C8.81987 2.00001 9.56907 1.60193 10.0316 0.957493L10.2521 0.65033L10.6077 0.778774C11.4634 1.08786 12.2558 1.54736 12.9494 2.13311L13.2378 2.37671L13.0825 2.72082C12.7564 3.44331 12.7865 4.29048 13.1961 5.00001C13.606 5.70986 14.325 6.1596 15.1141 6.23813L15.4907 6.27561L15.5569 6.6482C15.6356 7.0914 15.6755 7.54321 15.6755 8.00001C15.6755 8.45682 15.6356 8.90863 15.5569 9.35183L15.4907 9.72442L15.1141 9.7619C14.325 9.84043 13.606 10.2902 13.1961 11C12.7865 11.7095 12.7564 12.5567 13.0825 13.2792L13.2378 13.6233L12.9494 13.8669C12.2558 14.4527 11.4634 14.9122 10.6077 15.2213L10.2521 15.3497L10.0316 15.0425C9.56907 14.3981 8.81987 14 7.99997 14C7.18008 14 6.43087 14.3981 5.96834 15.0425L5.74788 15.3497L5.39228 15.2213C4.53656 14.9122 3.74417 14.4527 3.05058 13.8669L2.76214 13.6233L2.91747 13.2792C3.24359 12.5567 3.21347 11.7095 2.80382 11C2.39399 10.2902 1.67494 9.84043 0.885829 9.7619L0.509261 9.72442L0.443057 9.35183C0.364307 8.90863 0.324402 8.45682 0.324402 8.00001C0.324402 7.54321 0.364307 7.0914 0.443057 6.6482L0.509261 6.27561L0.885829 6.23813C1.67494 6.1596 2.39399 5.70986 2.80382 5.00001C3.21347 4.29048 3.24359 3.44331 2.91747 2.72082L2.76214 2.37671L3.05058 2.13311C3.74417 1.54736 4.53656 1.08786 5.39228 0.778774L5.74788 0.65033ZM3.97058 2.67713C4.2676 3.59971 4.1751 4.62488 3.66985 5.50001C3.16451 6.37528 2.32276 6.968 1.37515 7.17199C1.34145 7.44478 1.3244 7.72112 1.3244 8.00001C1.3244 8.27891 1.34145 8.55525 1.37515 8.82804C2.32276 9.03203 3.16451 9.62475 3.66985 10.5C4.1751 11.3751 4.2676 12.4003 3.97058 13.3229C4.41208 13.6577 4.89341 13.9365 5.40382 14.1522C6.05431 13.433 6.98886 13 7.99997 13C9.01108 13 9.94563 13.433 10.5961 14.1522C11.1065 13.9365 11.5879 13.6577 12.0294 13.3229C11.7323 12.4003 11.8248 11.3751 12.3301 10.5C12.8354 9.62475 13.6772 9.03204 14.6248 8.82805C14.6585 8.55525 14.6755 8.27891 14.6755 8.00001C14.6755 7.72112 14.6585 7.44478 14.6248 7.17199C13.6772 6.968 12.8354 6.37528 12.3301 5.50001C11.8248 4.62488 11.7324 3.59971 12.0294 2.67713C11.5879 2.34231 11.1065 2.0635 10.5961 1.84781C9.94563 2.56702 9.01108 3.00001 7.99997 3.00001C6.98886 3.00001 6.05431 2.56702 5.40382 1.84781C4.89341 2.0635 4.41207 2.34231 3.97058 2.67713Z" fill="currentColor"/>
<path fill-rule="evenodd" clip-rule="evenodd" d="M8 6C6.89543 6 6 6.89543 6 8C6 9.10457 6.89543 10 8 10C9.10457 10 10 9.10457 10 8C10 6.89543 9.10457 6 8 6ZM5 8C5 6.34315 6.34315 5 8 5C9.65685 5 11 6.34315 11 8C11 9.65685 9.65685 11 8 11C6.34315 11 5 9.65685 5 8Z" fill="currentColor"/>
</svg>
