<svg width="16" height="16" viewBox="0 0 16 16" fill="none" xmlns="http://www.w3.org/2000/svg">
<path fill-rule="evenodd" clip-rule="evenodd" d="M8.5 9.26321L11.6716 6.09165C11.8668 5.89639 12.1834 5.89639 12.3787 6.09165C12.5739 6.28691 12.5739 6.6035 12.3787 6.79876L8.49497 10.6825C8.22161 10.9558 7.77839 10.9558 7.50502 10.6825L3.62133 6.79876C3.42607 6.60349 3.42607 6.28691 3.62133 6.09165C3.81659 5.89639 4.13318 5.89639 4.32844 6.09165L7.5 9.26321L7.5 2.47032C7.5 2.19418 7.72386 1.97032 8 1.97032C8.27614 1.97032 8.5 2.19418 8.5 2.47032L8.5 9.26321ZM2.79999 10.1201C3.07613 10.1201 3.29999 10.3439 3.29999 10.6201V12.4201C3.29999 12.5858 3.4343 12.7201 3.59999 12.7201H12.4C12.5657 12.7201 12.7 12.5858 12.7 12.4201V10.6201C12.7 10.3439 12.9238 10.1201 13.2 10.1201C13.4761 10.1201 13.7 10.3439 13.7 10.6201V12.4201C13.7 13.1381 13.118 13.7201 12.4 13.7201H3.59999C2.88202 13.7201 2.29999 13.1381 2.29999 12.4201V10.6201C2.29999 10.3439 2.52385 10.1201 2.79999 10.1201Z" fill="currentColor"/>
</svg>
