<svg width="16" height="16" viewBox="0 0 16 16" fill="none" xmlns="http://www.w3.org/2000/svg">
<path d="M14.0404 8.62468H12.0784C11.8585 8.62477 11.6573 8.74928 11.5589 8.94597C11.2488 9.56628 10.6148 9.95866 9.92122 9.95866H6.07845C5.38501 9.95857 4.75088 9.56621 4.44075 8.94597C4.34229 8.74928 4.1412 8.62468 3.92122 8.62468H1.95931C1.95919 8.66328 1.95833 8.70668 1.95833 8.75554V10.1335C1.95833 10.7038 1.95904 11.094 1.98372 11.3962C2.00781 11.6908 2.05116 11.8466 2.10775 11.9577C2.23957 12.2164 2.45059 12.4264 2.70931 12.5583C2.82042 12.6149 2.97606 12.6592 3.27083 12.6833C3.57295 12.7079 3.96329 12.7087 4.53353 12.7087H11.4671C12.0372 12.7087 12.4277 12.708 12.7298 12.6833C13.0244 12.6592 13.1803 12.6149 13.2913 12.5583C13.5499 12.4264 13.7602 12.2162 13.8919 11.9577C13.9485 11.8466 13.9928 11.691 14.0169 11.3962C14.0416 11.094 14.0413 10.7038 14.0413 10.1335V8.75554C14.0413 8.70668 14.0405 8.66328 14.0404 8.62468ZM5.97786 3.29167C5.21464 3.29167 4.98167 3.29987 4.78743 3.36687C4.59487 3.43333 4.4193 3.5417 4.27376 3.68425C4.127 3.82801 4.01544 4.03293 3.67415 4.7155L2.34505 7.37468H3.92122C4.61476 7.37468 5.24876 7.76706 5.55892 8.38737C5.65732 8.58406 5.85852 8.70857 6.07845 8.70866H9.92122C10.1412 8.70866 10.3423 8.58406 10.4408 8.38737C10.7509 7.76713 11.385 7.37477 12.0784 7.37468H13.6546L12.3255 4.7155C11.9842 4.03285 11.8727 3.82801 11.7259 3.68425C11.5803 3.54169 11.4049 3.4333 11.2122 3.36687C11.018 3.29988 10.785 3.29167 10.0218 3.29167H5.97786ZM15.2913 10.1335C15.2913 10.6831 15.2918 11.1329 15.262 11.4977C15.2316 11.8699 15.1666 12.2084 15.0052 12.5251C14.7536 13.0189 14.3525 13.4209 13.8587 13.6725C13.5421 13.8339 13.2035 13.899 12.8314 13.9294C12.4666 13.9592 12.0167 13.9587 11.4671 13.9587H4.53353C3.98402 13.9587 3.53405 13.9591 3.16927 13.9294C2.79726 13.899 2.45852 13.8338 2.14193 13.6725C1.648 13.4209 1.24613 13.019 0.994465 12.5251C0.833096 12.2084 0.768035 11.8699 0.737629 11.4977C0.70783 11.1329 0.708332 10.6831 0.708332 10.1335V8.75554C0.708332 8.49049 0.70699 8.29903 0.733722 8.10808C0.756219 7.94744 0.793351 7.78917 0.845051 7.63542C0.906536 7.45267 0.994096 7.28167 1.11263 7.0446L2.55696 4.15593C2.85768 3.55448 3.06759 3.11699 3.39974 2.79167C3.6777 2.51944 4.0124 2.31209 4.38021 2.18522C4.81978 2.03362 5.30528 2.04167 5.97786 2.04167H10.0218C10.6942 2.04167 11.18 2.03372 11.6195 2.18522C11.9873 2.3121 12.3229 2.51941 12.6009 2.79167C12.9329 3.117 13.143 3.55453 13.4437 4.15593L14.888 7.0446C15.0066 7.28167 15.0931 7.45267 15.1546 7.63542C15.2063 7.78919 15.2434 7.94742 15.2659 8.10808C15.2927 8.29903 15.2913 8.49049 15.2913 8.75554V10.1335Z" fill="currentColor"/>
</svg>
