<svg width="20" height="20" viewBox="0 0 20 20" fill="none" xmlns="http://www.w3.org/2000/svg">
  <path fill-rule="evenodd" clip-rule="evenodd"
    d="M10 17.5C14.1421 17.5 17.5 14.1421 17.5 10C17.5 5.85786 14.1421 2.5 10 2.5C5.85786 2.5 2.5 5.85786 2.5 10C2.5 14.1421 5.85786 17.5 10 17.5ZM10 19C14.9706 19 19 14.9706 19 10C19 5.02944 14.9706 1 10 1C5.02944 1 1 5.02944 1 10C1 14.9706 5.02944 19 10 19Z"
    fill="currentColor" />
  <path
    d="M10.888 13.48V9.40088C10.888 8.80762 10.5657 8.5 10.075 8.5C9.5916 8.5 9.26201 8.80029 9.26201 9.40088V13.48C9.26201 14.0732 9.58427 14.3809 10.075 14.3809C10.5657 14.3809 10.888 14.0806 10.888 13.48Z"
    fill="currentColor" />
  <path
    d="M10.0677 7.08105C9.52568 7.08105 9.1082 6.69287 9.1082 6.1582C9.1082 5.63086 9.52568 5.25 10.0677 5.25C10.6316 5.25 11.0418 5.63086 11.0418 6.1582C11.0418 6.69287 10.6316 7.08105 10.0677 7.08105Z"
    fill="currentColor" />
</svg>
  