<svg width="16" height="16" viewBox="0 0 16 16" fill="currentColor" xmlns="http://www.w3.org/2000/svg">
<path fill-rule="evenodd" clip-rule="evenodd" d="M8.00002 6.71427C7.28994 6.71427 6.7143 7.28991 6.7143 7.99999C6.7143 8.71007 7.28994 9.28571 8.00002 9.28571C8.7101 9.28571 9.28574 8.71007 9.28574 7.99999C9.28574 7.28991 8.7101 6.71427 8.00002 6.71427Z" fill="currentColor"/>
<path fill-rule="evenodd" clip-rule="evenodd" d="M12.7143 6.71427C12.0042 6.71427 11.4286 7.28991 11.4286 7.99999C11.4286 8.71007 12.0042 9.28571 12.7143 9.28571C13.4244 9.28571 14 8.71007 14 7.99999C14 7.28991 13.4244 6.71427 12.7143 6.71427Z" fill="currentColor"/>
<path fill-rule="evenodd" clip-rule="evenodd" d="M3.28572 6.71427C2.57564 6.71427 2.00001 7.28991 2.00001 7.99999C2.00001 8.71007 2.57564 9.28571 3.28572 9.28571C3.99581 9.28571 4.57144 8.71007 4.57144 7.99999C4.57144 7.28991 3.99581 6.71427 3.28572 6.71427Z" fill="currentColor"/>
</svg>
