<svg width="16" height="16" viewBox="0 0 16 16" fill="currentColor" xmlns="http://www.w3.org/2000/svg">
<path fill-rule="evenodd" clip-rule="evenodd" d="M9.2857 7.99999C9.2857 7.28991 8.71006 6.71427 7.99998 6.71427C7.2899 6.71427 6.71426 7.28991 6.71426 7.99999C6.71426 8.71007 7.2899 9.28571 7.99998 9.28571C8.71006 9.28571 9.2857 8.71007 9.2857 7.99999Z" fill="currentColor"/>
<path fill-rule="evenodd" clip-rule="evenodd" d="M9.2857 12.7143C9.2857 12.0042 8.71006 11.4286 7.99998 11.4286C7.2899 11.4286 6.71426 12.0042 6.71426 12.7143C6.71426 13.4244 7.2899 14 7.99998 14C8.71006 14 9.2857 13.4244 9.2857 12.7143Z" fill="currentColor"/>
<path fill-rule="evenodd" clip-rule="evenodd" d="M9.2857 3.28569C9.2857 2.57561 8.71006 1.99998 7.99998 1.99998C7.2899 1.99998 6.71426 2.57561 6.71426 3.28569C6.71426 3.99578 7.2899 4.57141 7.99998 4.57141C8.71006 4.57141 9.2857 3.99578 9.2857 3.28569Z" fill="currentColor"/>
</svg>
