<svg width="14" height="14" viewBox="0 0 14 14" fill="none" xmlns="http://www.w3.org/2000/svg">
    <path d="M5.83333 12.5V7.5H0.833333C0.373096 7.5 0 7.1269 0 6.66667C0 6.20643 0.373096 5.83333 0.833333 5.83333H5.83333V0.833333C5.83333 0.373096 6.20643 0 6.66667 0C7.1269 0 7.5 0.373096 7.5 0.833333V5.83333H12.5C12.9602 5.83333 13.3333 6.20643 13.3333 6.66667C13.3333 7.1269 12.9602 7.5 12.5 7.5H7.5V12.5C7.5 12.9602 7.1269 13.3333 6.66667 13.3333C6.20643 13.3333 5.83333 12.9602 5.83333 12.5Z" fill="currentColor"/>
</svg>