<svg width="16" height="16" viewBox="0 0 16 16" fill="none" xmlns="http://www.w3.org/2000/svg">
<path fill-rule="evenodd" clip-rule="evenodd" d="M7.99771 1.5C6.89435 1.5 5.96559 1.84943 5.33606 2.57981C4.71362 3.30197 4.45062 4.31941 4.50779 5.52371C4.62434 7.97917 6.17831 9.5 7.99771 9.5C9.82369 9.5 11.3327 7.97255 11.4872 5.53158C11.5637 4.3222 11.3003 3.3017 10.6713 2.57819C10.0371 1.84875 9.10006 1.5 7.99771 1.5ZM5.50666 5.47629C5.45703 4.43059 5.69244 3.69803 6.09353 3.23269C6.48753 2.77557 7.10741 2.5 7.99771 2.5C8.88901 2.5 9.5184 2.77625 9.91664 3.23431C10.32 3.6983 10.555 4.4278 10.4892 5.46842C10.3589 7.52745 9.16221 8.5 7.99771 8.5C6.82663 8.5 5.60371 7.52083 5.50666 5.47629ZM8.00711 11.5C5.14918 11.5 3.30628 12.4786 2.53909 14.3065C2.43222 14.5611 2.552 14.8542 2.80662 14.961C3.06125 15.0679 3.3543 14.9481 3.46117 14.6935C4.01129 13.3828 5.36589 12.5 8.00711 12.5C8.28326 12.5 8.50711 12.2761 8.50711 12C8.50711 11.7239 8.28326 11.5 8.00711 11.5ZM10.5 13C10.5 12.7239 10.7239 12.5 11 12.5H12.5V11C12.5 10.7239 12.7239 10.5 13 10.5C13.2761 10.5 13.5 10.7239 13.5 11V12.5H15C15.2761 12.5 15.5 12.7239 15.5 13C15.5 13.2761 15.2761 13.5 15 13.5H13.5V15C13.5 15.2761 13.2761 15.5 13 15.5C12.7239 15.5 12.5 15.2761 12.5 15V13.5H11C10.7239 13.5 10.5 13.2761 10.5 13Z" fill="currentColor"/>
</svg>
