<svg width="16" height="16" viewBox="0 0 16 16" fill="none" xmlns="http://www.w3.org/2000/svg">
<path fill-rule="evenodd" clip-rule="evenodd" d="M7.99758 1.5C6.89423 1.5 5.96547 1.84943 5.33594 2.57981C4.7135 3.30197 4.4505 4.31941 4.50767 5.52371C4.62422 7.97917 6.17818 9.5 7.99758 9.5C9.82357 9.5 11.3326 7.97255 11.4871 5.53158C11.5636 4.3222 11.3002 3.3017 10.6712 2.57819C10.037 1.84875 9.09994 1.5 7.99758 1.5ZM5.50654 5.47629C5.4569 4.43059 5.69232 3.69803 6.09341 3.23269C6.48741 2.77557 7.10728 2.5 7.99758 2.5C8.88889 2.5 9.51828 2.77625 9.91652 3.23431C10.3199 3.6983 10.5549 4.4278 10.4891 5.46842C10.3587 7.52745 9.16208 8.5 7.99758 8.5C6.8265 8.5 5.60359 7.52083 5.50654 5.47629ZM8.00699 11.5C5.14906 11.5 3.30616 12.4786 2.53897 14.3065C2.4321 14.5611 2.55188 14.8542 2.8065 14.961C3.06113 15.0679 3.35417 14.9481 3.46105 14.6935C4.01116 13.3828 5.36577 12.5 8.00699 12.5C10.6303 12.5 11.9837 13.3711 12.5408 14.6649C12.65 14.9185 12.9441 15.0356 13.1977 14.9264C13.4514 14.8172 13.5685 14.523 13.4592 14.2694C12.682 12.4643 10.8444 11.5 8.00699 11.5Z" fill="currentColor"/>
</svg>
