<svg width="16" height="16" viewBox="0 0 16 16" fill="currentColor" xmlns="http://www.w3.org/2000/svg">
<path fill-rule="evenodd" clip-rule="evenodd" d="M16 8C16 12.4183 12.4183 16 8 16C3.58172 16 0 12.4183 0 8C0 3.58172 3.58172 0 8 0C12.4183 0 16 3.58172 16 8ZM8 4C8.41421 4 8.75 4.33579 8.75 4.75V7.2H11.25C11.6642 7.2 12 7.53578 12 7.95C12 8.36421 11.6642 8.7 11.25 8.7H8.75V11.25C8.75 11.6642 8.41421 12 8 12C7.58579 12 7.25 11.6642 7.25 11.25V8.7H4.75C4.33579 8.7 4 8.36421 4 7.95C4 7.53578 4.33579 7.2 4.75 7.2H7.25V4.75C7.25 4.33579 7.58579 4 8 4Z" fill="currentColor"/>
</svg>
