<svg width="16" height="16" viewBox="0 0 16 16" fill="currentColor" xmlns="http://www.w3.org/2000/svg">
    <path fill-rule="evenodd" clip-rule="evenodd" d="M8.74999 3.75299C8.74999 3.33878 8.4142 3.00299 7.99999 3.00299C7.58578 3.00299 7.24999 3.33878 7.24999 3.75299V7.25H3.75C3.33579 7.25 3 7.58579 3 8C3 8.41422 3.33579 8.75 3.75 8.75H7.24999V12.253C7.24999 12.6672 7.58578 13.003 7.99999 13.003C8.4142 13.003 8.74999 12.6672 8.74999 12.253V8.75H12.25C12.6642 8.75 13 8.41422 13 8C13 7.58579 12.6642 7.25 12.25 7.25H8.74999V3.75299Z" fill="currentColor"/>
</svg>