<svg width="16" height="16" viewBox="0 0 16 16" fill="none" xmlns="http://www.w3.org/2000/svg">
<path fill-rule="evenodd" clip-rule="evenodd" d="M4.50244 0.501495C3.67401 0.501495 3.00244 1.17307 3.00244 2.0015V2.5015H0.502441C0.226299 2.5015 0.00244141 2.72535 0.00244141 3.0015C0.00244141 3.27764 0.226299 3.5015 0.502441 3.5015H3.00244V4.0015C3.00244 4.82992 3.67401 5.5015 4.50244 5.5015C5.33087 5.5015 6.00244 4.82992 6.00244 4.0015V2.0015C6.00244 1.17307 5.33087 0.501495 4.50244 0.501495ZM8.00244 2.5015H15.5024C15.7786 2.5015 16.0024 2.72535 16.0024 3.0015C16.0024 3.27764 15.7786 3.5015 15.5024 3.5015H8.00244V2.5015ZM11.5024 5.5015C10.674 5.5015 10.0024 6.17307 10.0024 7.0015V9.0015C10.0024 9.82992 10.674 10.5015 11.5024 10.5015C12.3309 10.5015 13.0024 9.82992 13.0024 9.0015V8.5015H15.5024C15.7786 8.5015 16.0024 8.27764 16.0024 8.0015C16.0024 7.72535 15.7786 7.5015 15.5024 7.5015H13.0024V7.0015C13.0024 6.17307 12.3309 5.5015 11.5024 5.5015ZM0.00244141 8.0015C0.00244141 7.72535 0.226299 7.5015 0.502441 7.5015H8.00244V8.5015H0.502441C0.226299 8.5015 0.00244141 8.27764 0.00244141 8.0015ZM5.00244 12.0015C5.00244 11.1731 5.67401 10.5015 6.50244 10.5015C7.33087 10.5015 8.00244 11.1731 8.00244 12.0015V12.5015H15.5024C15.7786 12.5015 16.0024 12.7254 16.0024 13.0015C16.0024 13.2776 15.7786 13.5015 15.5024 13.5015H8.00244V14.0015C8.00244 14.8299 7.33087 15.5015 6.50244 15.5015C5.67401 15.5015 5.00244 14.8299 5.00244 14.0015V12.0015ZM0.502441 12.5015C0.226299 12.5015 0.00244141 12.7254 0.00244141 13.0015C0.00244141 13.2776 0.226299 13.5015 0.502441 13.5015H4.00244V12.5015H0.502441Z" fill="currentColor"/>
</svg>
