<svg width="16" height="16" viewBox="0 0 16 16" fill="none" xmlns="http://www.w3.org/2000/svg">
<path fill-rule="evenodd" clip-rule="evenodd" d="M9.1383 1.44011L10.2569 4.79195C10.291 4.89399 10.3865 4.96281 10.4941 4.96281H14.1209C15.2912 4.96281 15.7693 6.4667 14.8139 7.14249L11.9134 9.19414C11.8234 9.25778 11.7858 9.37284 11.8206 9.47739L12.927 12.7924C13.2941 13.8924 12.0424 14.8216 11.0957 14.152L8.14438 12.0644C8.05786 12.0032 7.94216 12.0032 7.85564 12.0644L4.90428 14.152C3.95758 14.8217 2.70593 13.8924 3.07302 12.7924L4.17938 9.47738C4.21427 9.37284 4.17659 9.25779 4.08661 9.19414L1.18612 7.14249C0.23073 6.4667 0.708861 4.96281 1.87909 4.96281H5.50595C5.61353 4.96281 5.70904 4.89399 5.74309 4.79195L6.86173 1.44011C7.22667 0.346614 8.77336 0.346635 9.1383 1.44011Z" fill="currentColor"/>
</svg>
