<svg width="16" height="16" viewBox="0 0 16 16" fill="none" xmlns="http://www.w3.org/2000/svg">
<path fill-rule="evenodd" clip-rule="evenodd" d="M6.69166 5.10852C6.52139 5.61873 6.04382 5.96281 5.50595 5.96281H1.87909C1.68405 5.96281 1.60437 6.21346 1.7636 6.32609L4.66409 8.37774C5.11398 8.69596 5.3024 9.27124 5.12795 9.79396L4.02159 13.109C3.96041 13.2923 4.16902 13.4472 4.3268 13.3356L7.27816 11.248C7.71076 10.942 8.28927 10.942 8.72186 11.248L11.6732 13.3356C11.831 13.4472 12.0396 13.2923 11.9784 13.109L10.8721 9.79396C10.6976 9.27125 10.8861 8.69596 11.3359 8.37774L14.2364 6.32609C14.3957 6.21346 14.316 5.96281 14.1209 5.96281H10.4941C9.95621 5.96281 9.47864 5.61873 9.30837 5.10852L8.18973 1.75668C8.1289 1.57443 7.87112 1.57443 7.8103 1.75668L6.69166 5.10852ZM9.1383 1.44011L10.2569 4.79195C10.291 4.89399 10.3865 4.96281 10.4941 4.96281H14.1209C15.2912 4.96281 15.7693 6.4667 14.8139 7.14249L11.9134 9.19414C11.8234 9.25778 11.7858 9.37284 11.8206 9.47739L12.927 12.7924C13.2941 13.8924 12.0424 14.8216 11.0957 14.152L8.14438 12.0644C8.05786 12.0032 7.94216 12.0032 7.85564 12.0644L4.90428 14.152C3.95758 14.8217 2.70593 13.8924 3.07302 12.7924L4.17938 9.47738C4.21427 9.37284 4.17659 9.25779 4.08661 9.19414L1.18612 7.14249C0.23073 6.4667 0.708861 4.96281 1.87909 4.96281H5.50595C5.61353 4.96281 5.70904 4.89399 5.74309 4.79195L6.86173 1.44011C7.22667 0.346614 8.77336 0.346635 9.1383 1.44011Z" fill="currentColor"/>
</svg>
