<svg width="16" height="16" viewBox="0 0 16 16" fill="none" xmlns="http://www.w3.org/2000/svg">
<path d="M10.194 6.03701C10.2144 5.76162 10.0077 5.52181 9.73235 5.50137C9.45696 5.48093 9.21715 5.68761 9.19671 5.96299L10.194 6.03701ZM8.75137 11.963C8.73093 12.2384 8.93761 12.4782 9.21299 12.4986C9.48838 12.5191 9.72819 12.3124 9.74863 12.037L8.75137 11.963ZM6.80329 5.96299C6.78285 5.68761 6.54303 5.48093 6.26765 5.50137C5.99226 5.52181 5.78559 5.76162 5.80603 6.03701L6.80329 5.96299ZM6.25137 12.037C6.27181 12.3124 6.51162 12.5191 6.78701 12.4986C7.06239 12.4782 7.26906 12.2384 7.24862 11.963L6.25137 12.037ZM3.25 3.5V3H2.70921L2.75153 3.53914L3.25 3.5ZM12.75 3.5L13.2485 3.53914L13.2908 3H12.75V3.5ZM12.0311 12.6565L11.5326 12.6174L12.0311 12.6565ZM3.9689 12.6565L3.47044 12.6957L3.9689 12.6565ZM1.5 3C1.22386 3 1 3.22386 1 3.5C1 3.77614 1.22386 4 1.5 4V3ZM14.5 4C14.7761 4 15 3.77614 15 3.5C15 3.22386 14.7761 3 14.5 3V4ZM5.5 3.5H5V4H5.5V3.5ZM10.5 3.5V4H11V3.5H10.5ZM9.19671 5.96299L8.75137 11.963L9.74863 12.037L10.194 6.03701L9.19671 5.96299ZM5.80603 6.03701L6.25137 12.037L7.24862 11.963L6.80329 5.96299L5.80603 6.03701ZM3.25 4H12.75V3H3.25V4ZM12.2515 3.46086L11.5326 12.6174L12.5296 12.6957L13.2485 3.53914L12.2515 3.46086ZM11.5326 12.6174C11.4714 13.3979 10.8201 14 10.0372 14V15C11.3421 15 12.4274 13.9965 12.5296 12.6957L11.5326 12.6174ZM10.0372 14H5.96277V15H10.0372V14ZM5.96277 14C5.17987 14 4.52865 13.3979 4.46737 12.6174L3.47044 12.6957C3.57257 13.9965 4.65794 15 5.96277 15V14ZM4.46737 12.6174L3.74847 3.46086L2.75153 3.53914L3.47044 12.6957L4.46737 12.6174ZM1.5 4H14.5V3H1.5V4ZM6 3.5V2.5H5V3.5H6ZM6 2.5C6 1.94772 6.44772 1.5 7 1.5V0.5C5.89543 0.5 5 1.39543 5 2.5H6ZM7 1.5H9V0.5H7V1.5ZM9 1.5C9.55229 1.5 10 1.94772 10 2.5H11C11 1.39543 10.1046 0.5 9 0.5V1.5ZM10 2.5V3.5H11V2.5H10ZM10.5 3H5.5V4H10.5V3Z" fill="currentColor"/>
</svg>
