<svg width="16" height="16" viewBox="0 0 16 16" fill="none" xmlns="http://www.w3.org/2000/svg">
<path fill-rule="evenodd" clip-rule="evenodd" d="M11 2.5V3H14.5C14.7761 3 15 3.22386 15 3.5C15 3.77614 14.7761 4 14.5 4H13.2123L12.5296 12.6957C12.4274 13.9965 11.3421 15 10.0372 15H5.96277C4.65794 15 3.57257 13.9965 3.47044 12.6957L2.78772 4H1.5C1.22386 4 1 3.77614 1 3.5C1 3.22386 1.22386 3 1.5 3H5V2.5C5 1.39543 5.89543 0.5 7 0.5H9C10.1046 0.5 11 1.39543 11 2.5ZM7 1.5C6.44772 1.5 6 1.94772 6 2.5V3H10V2.5C10 1.94772 9.55229 1.5 9 1.5H7ZM6.80329 5.96298C6.78285 5.6876 6.54303 5.48092 6.26765 5.50136C5.99226 5.5218 5.78559 5.76162 5.80603 6.037L6.25137 12.037C6.27181 12.3124 6.51162 12.5191 6.78701 12.4986C7.06239 12.4782 7.26906 12.2384 7.24862 11.963L6.80329 5.96298ZM10.194 6.037C10.2144 5.76162 10.0077 5.5218 9.73235 5.50136C9.45696 5.48092 9.21715 5.6876 9.19671 5.96298L8.75137 11.963C8.73093 12.2384 8.93761 12.4782 9.21299 12.4986C9.48837 12.5191 9.72819 12.3124 9.74863 12.037L10.194 6.037Z" fill="currentColor"/>
</svg>
