<svg width="16" height="16" viewBox="0 0 16 16" fill="none" xmlns="http://www.w3.org/2000/svg">
<path fill-rule="evenodd" clip-rule="evenodd" d="M4.66675 6.33366C4.66675 4.49271 6.15913 3.00033 8.00008 3.00033C9.84103 3.00033 11.3334 4.49271 11.3334 6.33366C11.3334 8.17461 9.84103 9.66699 8.00008 9.66699C6.15913 9.66699 4.66675 8.17461 4.66675 6.33366Z" fill="currentColor"/>
<path fill-rule="evenodd" clip-rule="evenodd" d="M11.4943 0.666992H4.50588C3.96924 0.666984 3.52633 0.666977 3.16553 0.696455C2.7908 0.727072 2.44633 0.792782 2.12277 0.957642C1.62101 1.2133 1.21306 1.62125 0.957398 2.12302C0.792538 2.44658 0.726828 2.79104 0.696211 3.16578C0.666733 3.52657 0.66674 3.96947 0.666748 4.50612V11.4945C0.66674 12.0312 0.666733 12.4741 0.696211 12.8349C0.726828 13.2096 0.792538 13.5541 0.957398 13.8776C1.21306 14.3794 1.62101 14.7873 2.12277 15.043C2.44633 15.2079 2.7908 15.2736 3.16553 15.3042C3.52632 15.3337 3.96923 15.3337 4.50587 15.3337H11.4943C12.0309 15.3337 12.4738 15.3337 12.8346 15.3042C13.2094 15.2736 13.5538 15.2079 13.8774 15.043C14.3792 14.7873 14.7871 14.3794 15.0428 13.8776C15.2076 13.5541 15.2733 13.2096 15.304 12.8349C15.3334 12.4741 15.3334 12.0312 15.3334 11.4945V4.50611C15.3334 3.96947 15.3334 3.52657 15.304 3.16578C15.2733 2.79104 15.2076 2.44658 15.0428 2.12302C14.7871 1.62125 14.3792 1.2133 13.8774 0.957642C13.5538 0.792782 13.2094 0.727072 12.8346 0.696455C12.4738 0.666977 12.0309 0.666984 11.4943 0.666992ZM2.7281 2.14565C2.83236 2.09252 2.98183 2.04924 3.27411 2.02536C3.57417 2.00084 3.96236 2.00033 4.53342 2.00033H11.4667C12.0378 2.00033 12.426 2.00084 12.7261 2.02536C13.0183 2.04924 13.1678 2.09252 13.2721 2.14565C13.523 2.27348 13.7269 2.47746 13.8548 2.72834C13.9079 2.83261 13.9512 2.98207 13.975 3.27435C13.9996 3.57441 14.0001 3.96261 14.0001 4.53366V11.467C14.0001 12.038 13.9996 12.4262 13.975 12.7263C13.9577 12.938 13.9303 13.0748 13.8962 13.1738C13.5541 11.8335 12.4053 10.8221 10.9935 10.6831C10.8299 10.6669 10.6444 10.667 10.372 10.667H5.62818C5.35578 10.667 5.17027 10.6669 5.0067 10.6831C3.59489 10.8221 2.44609 11.8336 2.10393 13.1738C2.0699 13.0748 2.04242 12.938 2.02512 12.7263C2.0006 12.4262 2.00008 12.038 2.00008 11.467V4.53366C2.00008 3.96261 2.0006 3.57441 2.02512 3.27435C2.049 2.98207 2.09228 2.83261 2.14541 2.72834C2.27324 2.47746 2.47721 2.27348 2.7281 2.14565Z" fill="currentColor"/>
</svg>
