<svg width="16" height="16" viewBox="0 0 16 16" fill="none" xmlns="http://www.w3.org/2000/svg">
  <path fill-rule="evenodd" clip-rule="evenodd"
    d="M5.92152 2.6C6.60359 1.41861 6.94463 0.827917 7.38988 0.629682C7.77824 0.456773 8.22173 0.456773 8.61009 0.629682C9.05533 0.827917 9.39637 1.41861 10.0784 2.6L14.5818 10.4C15.2638 11.5814 15.6049 12.1721 15.5539 12.6568C15.5095 13.0796 15.2878 13.4636 14.9438 13.7135C14.5495 14 13.8675 14 12.5033 14H3.49665C2.1325 14 1.45042 14 1.05613 13.7135C0.712201 13.4637 0.490456 13.0796 0.44602 12.6568C0.395075 12.1721 0.736112 11.5814 1.41819 10.4L5.92152 2.6ZM7.99999 4C8.41421 4 8.74999 4.33579 8.74999 4.75V8.25C8.74999 8.66421 8.41421 9 7.99999 9C7.58578 9 7.24999 8.66421 7.24999 8.25V4.75C7.24999 4.33579 7.58578 4 7.99999 4ZM9 11C9 11.5523 8.55228 12 8 12C7.44772 12 7 11.5523 7 11C7 10.4477 7.44772 10 8 10C8.55228 10 9 10.4477 9 11Z"
    fill="currentColor" />
</svg>
  