<svg width="1172" height="1172" viewBox="0 0 1172 1172" fill="none" xmlns="http://www.w3.org/2000/svg">
<path d="M465.203 860.202V840.09H437.41V953.986H456.155C461.15 953.986 465.203 949.933 465.203 944.938V900.2C465.203 878.504 472.205 863.359 489.838 863.359H507.689V840.081H494.353C479.67 840.09 470.857 845.735 465.203 860.202Z" fill="#001B38"/>
<path d="M572.092 838.281C537.288 838.281 512.435 863.143 512.435 897.034C512.435 930.925 537.297 955.787 572.092 955.787C606.671 955.787 631.524 930.925 631.524 897.034C631.524 863.143 606.671 838.281 572.092 838.281ZM572.092 931.839C553.111 931.839 540.454 917.599 540.454 897.034C540.454 876.47 553.111 862.23 572.092 862.23C590.847 862.23 603.505 876.47 603.505 897.034C603.505 917.599 590.847 931.839 572.092 931.839Z" fill="#001B38"/>
<path d="M711.755 838.281C695.488 838.281 682.605 845.284 676.272 857.715V840.091H648.478V953.987H667.225C672.219 953.987 676.272 949.934 676.272 944.94V891.841C676.272 875.122 687.119 862.917 702.708 862.917C716.948 862.917 726.439 873.765 726.439 889.362V953.996H745.185C750.179 953.996 754.232 949.943 754.232 944.949V883.482C754.241 856.81 737.513 838.281 711.755 838.281Z" fill="#001B38"/>
<path d="M845.992 854.325V840.093H814.353V805.741H786.56V832.629C786.56 838.048 783.846 840.084 779.331 840.084H764.186V863.363H786.56V914.208C786.56 939.523 802.836 953.98 827.689 953.98H845.992V928.892H830.847C820.451 928.892 814.345 923.02 814.345 911.494V863.363H836.936C841.939 863.372 845.992 859.319 845.992 854.325Z" fill="#001B38"/>
<path d="M326 824.494V953.988H346.782C351.776 953.988 355.829 949.935 355.829 944.94V887.545H416.391V861.778H355.829V829.461C355.829 825.091 359.366 821.554 363.736 821.554H422.263C427.257 821.554 431.31 817.501 431.31 812.507V795.787H354.698C338.856 795.796 326 808.643 326 824.494Z" fill="#001B38"/>
<path d="M437 298.987C437 253.037 474.25 215.787 520.2 215.787H787V334.187C787 357.162 768.375 375.787 745.4 375.787H637C614.909 375.787 597 393.696 597 415.787V674.187C597 697.162 578.375 715.787 555.4 715.787H437V298.987Z" fill="#001B38"/>
<circle cx="638" cy="416.787" r="108" transform="rotate(90 638 416.787)" fill="url(#paint0_linear)"/>
<circle opacity="0.5" cx="638" cy="416.787" r="108" transform="rotate(90 638 416.787)" fill="url(#paint1_linear)"/>
<defs>
<linearGradient id="paint0_linear" x1="557.041" y1="492.847" x2="720.574" y2="330.436" gradientUnits="userSpaceOnUse">
<stop stop-color="#FF0057" stop-opacity="0.16"/>
<stop offset="0.861354" stop-color="#FF0057"/>
</linearGradient>
<linearGradient id="paint1_linear" x1="557.041" y1="492.847" x2="720.574" y2="330.436" gradientUnits="userSpaceOnUse">
<stop stop-color="#FF0057" stop-opacity="0.16"/>
<stop offset="0.861354" stop-color="#FF0057"/>
</linearGradient>
</defs>
</svg>
